<?xml version="1.0" standalone="no"?>
<!DOCTYPE svg PUBLIC "-//W3C//DTD SVG 20010904//EN"
 "http://www.w3.org/TR/2001/REC-SVG-20010904/DTD/svg10.dtd">
<svg version="1.0" xmlns="http://www.w3.org/2000/svg"
 width="148.000000pt" height="148.000000pt" viewBox="0 0 148.000000 148.000000"
 preserveAspectRatio="xMidYMid meet">
<metadata>
Created by potrace 1.14, written by Peter Selinger 2001-2017
</metadata>
<g transform="translate(0.000000,148.000000) scale(0.100000,-0.100000)"
fill="#000000" stroke="none">
<path d="M787 1453 c-4 -4 -29 -6 -55 -4 -27 1 -68 -5 -93 -14 -24 -8 -48 -17
-54 -18 -5 -1 -12 -4 -15 -7 -3 -3 -21 -17 -40 -30 -38 -27 -79 -70 -80 -83
-1 -24 -30 -37 -112 -52 -69 -13 -77 -21 -74 -69 3 -50 -3 -66 -25 -69 -25 -4
-56 -31 -71 -62 -10 -22 -14 -66 -13 -165 0 -74 3 -139 6 -145 4 -5 9 -21 12
-35 6 -23 19 -32 82 -55 13 -5 15 -9 7 -12 -6 -3 -10 -9 -6 -14 3 -5 7 -35 10
-67 4 -54 10 -94 14 -99 2 -2 3 -6 4 -10 6 -28 31 -83 38 -83 4 0 4 -7 1 -17
-4 -10 -2 -14 5 -9 16 10 27 -15 11 -26 -10 -7 -7 -7 9 -3 21 6 28 -6 23 -38
-1 -5 3 -6 8 -2 6 3 19 -3 31 -15 11 -11 25 -20 30 -20 6 0 10 -5 10 -11 0 -5
-5 -7 -12 -3 -7 4 -8 3 -4 -4 4 -6 13 -9 21 -6 8 3 22 -1 31 -10 8 -9 20 -14
25 -11 5 4 9 1 9 -4 0 -6 7 -11 15 -11 8 0 15 -7 15 -15 0 -9 6 -12 15 -9 8 4
15 1 15 -7 0 -7 3 -9 6 -6 8 8 64 -24 64 -35 0 -4 8 -8 18 -8 10 0 23 -5 29
-11 15 -15 83 -20 83 -7 0 6 6 5 15 -2 13 -11 14 -10 10 1 -3 8 4 20 16 28 19
11 21 11 16 -4 -4 -9 -3 -14 3 -10 6 3 10 13 10 21 0 13 12 18 33 15 4 0 7 3
7 9 0 5 10 15 23 21 21 12 21 11 8 -7 -8 -10 -2 -7 12 8 16 16 33 25 42 21 9
-3 15 -1 13 5 -2 5 0 9 3 9 4 -1 16 6 27 16 10 9 26 15 35 12 8 -4 18 -2 22 4
3 7 0 8 -9 5 -9 -3 -16 -1 -16 5 0 6 3 11 8 11 4 0 19 11 34 24 14 14 29 22
32 18 4 -3 4 1 1 10 -4 9 -1 19 6 24 8 5 10 3 4 -6 -5 -9 -4 -11 4 -6 6 4 9
11 6 16 -3 5 1 15 8 22 8 8 20 30 28 51 7 20 15 37 19 37 5 0 13 70 14 133 0
20 3 37 7 37 3 0 4 12 1 26 -4 22 -2 25 19 22 13 -2 29 0 34 5 6 4 18 13 29
20 19 14 31 77 13 77 -6 0 -8 3 -5 6 4 3 0 20 -7 39 -10 22 -12 42 -5 63 13
48 5 173 -13 207 -9 17 -16 26 -17 22 0 -5 -12 1 -28 11 -25 18 -27 25 -26 75
2 63 13 56 -131 83 -16 3 -33 10 -37 17 -4 7 -24 33 -45 58 -36 45 -129 102
-178 111 -11 1 -23 6 -26 11 -3 4 -9 4 -12 0z"/>
</g>
</svg>
